<?xml version="1.0" encoding="UTF-8"?>
<svg version="1.1" xmlns="http://www.w3.org/2000/svg" width="512" height="512">
<path d="M0 0 C2.05013207 -0.00270263 4.10026288 -0.00659141 6.15039062 -0.01159668 C10.42330263 -0.0174555 14.69587755 -0.00904641 18.96875 0.00976562 C24.40509892 0.03255272 29.84065751 0.01941007 35.27697754 -0.00452423 C39.50331416 -0.01908063 43.72946797 -0.01433144 47.95581055 -0.00401306 C49.95857846 -0.00137287 51.96136379 -0.00451839 53.96411133 -0.01393127 C68.76510531 -0.06825474 82.29169478 1.1600315 95.6875 8.09375 C96.34621094 8.42963135 97.00492187 8.7655127 97.68359375 9.11157227 C104.65602771 12.86043786 110.03702502 17.87200047 115.5 23.53125 C116.23734375 24.23765625 116.9746875 24.9440625 117.734375 25.671875 C122.0348607 30.0390349 124.96977243 34.80663412 127.75 40.21875 C128.22614746 41.13466919 128.22614746 41.13466919 128.71191406 42.0690918 C135.17581341 55.37242196 136.06346135 67.79419762 135.890625 82.2734375 C135.88314596 84.13672268 135.87746091 86.00001584 135.87347412 87.86331177 C135.85834851 92.71969088 135.81918277 97.57557604 135.7746582 102.4317627 C135.73342009 107.40626345 135.71540273 112.38084559 135.6953125 117.35546875 C135.65267311 127.08094379 135.58458442 136.8060555 135.5 146.53125 C137.03190475 146.51792633 137.03190475 146.51792633 138.59475708 146.5043335 C148.27355589 146.42284038 157.95228405 146.36309063 167.63134956 146.32400131 C172.60610507 146.3032287 177.58058107 146.2751024 182.55517578 146.22949219 C187.36628802 146.18566273 192.17713336 146.16203549 196.98843002 146.15174103 C198.81343658 146.14441563 200.63843044 146.13011321 202.46332169 146.10832977 C216.6174643 145.94627074 228.9101842 147.56969645 241.6875 154.21875 C242.35547607 154.56341309 243.02345215 154.90807617 243.71166992 155.26318359 C261.27386369 164.64291964 272.8528628 180.20848823 279.28138733 198.78981018 C282.30640748 209.04883872 281.95412734 219.36368374 281.93359375 229.95703125 C281.93816479 232.03387114 281.94347308 234.11070953 281.94947815 236.18754578 C281.95837445 240.52540254 281.95602666 244.86307487 281.94604492 249.20092773 C281.934571 254.7214068 281.95476088 260.24124466 281.98396206 265.7616396 C282.00243422 270.04715425 282.00200959 274.33251844 281.99632454 278.61806297 C281.99617261 280.65154099 282.00210907 282.68503006 282.01461601 284.71846962 C282.09373365 299.68996312 280.93951872 313.27578747 273.8125 326.78125 C273.46783691 327.44471436 273.12317383 328.10817871 272.76806641 328.79174805 C263.53339836 345.9659022 248.52640235 357.50092971 230.19103813 363.6389761 C220.33991647 366.50437899 211.27686093 367.09599701 201.05908203 367.02954102 C199.3670555 367.03337474 197.67503225 367.03900269 195.98301697 367.04626465 C192.37199635 367.05811698 188.76126702 367.05780324 185.15024185 367.04767036 C179.43362404 367.03197644 173.71729965 367.04587702 168.0007019 367.06370544 C156.90506355 367.09437955 145.80951723 367.09603116 134.7138443 367.09405518 C120.56900321 367.09265767 106.42423217 367.10307112 92.27944267 367.1426329 C86.60261145 367.15751851 80.92604468 367.15733357 75.24920964 367.14515507 C71.71644017 367.14043175 68.18377124 367.14798216 64.65101814 367.15869904 C63.01965192 367.16109673 61.38826859 367.15839982 59.75692177 367.15009117 C51.5468932 367.1107905 44.12965076 367.07952071 36.5 370.53125 C33.01926797 374.01198203 32.24737108 376.81554359 32.0625 381.59375 C32.24616704 385.67115836 32.73017598 388.37938129 35.5 391.53125 C41.41783468 396.00961138 48.24837655 395.68614408 55.35107422 395.73657227 C56.22001816 395.74647186 57.0889621 395.75637146 57.98423767 395.76657104 C60.84102707 395.79802289 63.69783307 395.82287863 66.5546875 395.84765625 C68.54151834 395.86823988 70.52834494 395.88923672 72.51516724 395.91062927 C77.73307857 395.96570442 82.95102847 396.01517766 88.16900635 396.06347656 C93.49812229 396.11379814 98.82718255 396.16942848 104.15625 396.22460938 C114.60411904 396.33201279 125.05203653 396.43349703 135.5 396.53125 C135.6024358 403.80448202 135.67189468 411.07752424 135.71972656 418.35131836 C135.73969219 420.81948803 135.76687437 423.28761133 135.80175781 425.75561523 C136.1681012 452.36399723 136.1681012 452.36399723 131.5 464.53125 C131.19175293 465.34086182 130.88350586 466.15047363 130.56591797 466.98461914 C129.73148503 468.9764101 128.81999655 470.87207768 127.8125 472.78125 C127.46783691 473.44471436 127.12317383 474.10817871 126.76806641 474.79174805 C117.49670599 492.03414075 102.60402803 503.25258495 84.33374023 509.63781738 C73.21000287 512.9760568 62.54965343 513.11678318 51 513.0625 C48.94986793 513.06520263 46.89973712 513.06909141 44.84960938 513.07409668 C40.57669737 513.0799555 36.30412245 513.07154641 32.03125 513.05273438 C26.59490108 513.02994728 21.15934249 513.04308993 15.72302246 513.06702423 C11.49668584 513.08158063 7.27053203 513.07683144 3.04418945 513.06651306 C1.04142154 513.06387287 -0.96136379 513.06701839 -2.96411133 513.07643127 C-17.76510531 513.13075474 -31.29169478 511.9024685 -44.6875 504.96875 C-45.34621094 504.63286865 -46.00492188 504.2969873 -46.68359375 503.95092773 C-53.65602771 500.20206214 -59.03702502 495.19049953 -64.5 489.53125 C-65.23734375 488.82484375 -65.9746875 488.1184375 -66.734375 487.390625 C-71.0348607 483.0234651 -73.96977243 478.25586588 -76.75 472.84375 C-77.06743164 472.23313721 -77.38486328 471.62252441 -77.71191406 470.9934082 C-84.17581341 457.69007804 -85.06346135 445.26830238 -84.890625 430.7890625 C-84.88314596 428.92577732 -84.87746091 427.06248416 -84.87347412 425.19918823 C-84.85834851 420.34280912 -84.81918277 415.48692396 -84.7746582 410.6307373 C-84.73342009 405.65623655 -84.71540273 400.68165441 -84.6953125 395.70703125 C-84.65267311 385.98155621 -84.58458442 376.2564445 -84.5 366.53125 C-85.50652115 366.54013245 -86.5130423 366.54901489 -87.55006409 366.5581665 C-97.09610502 366.63971288 -106.64207408 366.69943444 -116.18838596 366.73849869 C-121.09473396 366.75925808 -126.00079786 366.78735932 -130.90698242 366.83300781 C-135.65326108 366.87688558 -140.39926875 366.90047437 -145.14573479 366.91075897 C-146.94479569 366.9180759 -148.74384396 366.93236096 -150.54278755 366.95417023 C-164.78437031 367.11975462 -177.80992611 365.63423005 -190.6875 358.96875 C-191.34621094 358.63286865 -192.00492188 358.2969873 -192.68359375 357.95092773 C-199.65602771 354.20206214 -205.03702502 349.19049953 -210.5 343.53125 C-211.23734375 342.82484375 -211.9746875 342.1184375 -212.734375 341.390625 C-217.0348607 337.0234651 -219.96977243 332.25586588 -222.75 326.84375 C-223.06743164 326.23313721 -223.38486328 325.62252441 -223.71191406 324.9934082 C-230.49278883 311.03771195 -231.10080577 297.85369117 -231.03125 282.65625 C-231.03395162 280.55745261 -231.03783957 278.45865644 -231.04284668 276.35986328 C-231.04871022 271.98262497 -231.04028085 267.60571541 -231.02148438 263.22851562 C-230.99869704 257.65416282 -231.01183709 252.08058073 -231.03577423 246.5062561 C-231.05031765 242.17873463 -231.04558727 237.85139199 -231.03526306 233.52386475 C-231.03261932 231.47003078 -231.03578136 229.41617988 -231.04518127 227.36236572 C-231.09787671 212.61765083 -229.75999663 199.77424234 -222.9375 186.40625 C-222.60161865 185.74302734 -222.2657373 185.07980469 -221.91967773 184.39648438 C-218.17833444 177.39084223 -213.17733551 172.0116837 -207.5 166.53125 C-206.79359375 165.79390625 -206.0871875 165.0565625 -205.359375 164.296875 C-201.01171139 160.01558794 -196.25659325 157.06445258 -190.875 154.28125 C-190.27276611 153.96381836 -189.67053223 153.64638672 -189.05004883 153.31933594 C-176.41288757 147.14758585 -163.81859137 145.94146821 -150.02734375 146.01708984 C-148.33207059 146.01161451 -146.6368024 146.0043647 -144.94154358 145.99549866 C-141.32398003 145.98028748 -137.70669952 145.97730641 -134.08911133 145.98426437 C-128.36463525 145.99513838 -122.6404503 145.97756922 -116.91601562 145.95645142 C-107.86543604 145.92632015 -98.81494407 145.91450816 -89.76431847 145.91087496 C-73.53992264 145.90420082 -57.31558701 145.87515235 -41.09126568 145.8257786 C-35.4038944 145.80931792 -29.71665056 145.80385622 -24.02925777 145.80736899 C-20.49441867 145.8078066 -16.95962763 145.80023404 -13.42480278 145.79069328 C-11.7893741 145.78801577 -10.15393563 145.78875323 -8.51851082 145.79320335 C-6.28174952 145.79886825 -4.04533493 145.79227197 -1.80859375 145.7828064 C-0.55876709 145.78247091 0.69105957 145.78213543 1.97875977 145.78178978 C7.34331504 145.40009628 11.28075693 144.59146136 15.375 141.03125 C18.83472345 136.96098711 18.78233741 134.21232343 18.71484375 129.0078125 C18.43315491 125.76070841 17.65142982 123.97942877 15.5 121.53125 C9.66157912 117.22925567 3.63153267 117.37457217 -3.3293457 117.32592773 C-4.64717293 117.31107834 -4.64717293 117.31107834 -5.99162292 117.29592896 C-8.88631525 117.26442199 -11.78102397 117.23959933 -14.67578125 117.21484375 C-16.68646158 117.19426489 -18.69713767 117.17326817 -20.70780945 117.15187073 C-25.99313928 117.09674632 -31.27850753 117.04729463 -36.56390381 116.99902344 C-41.95995492 116.94873802 -47.35595042 116.89308873 -52.75195312 116.83789062 C-63.33458788 116.73042687 -73.91727097 116.62895582 -84.5 116.53125 C-84.602307 109.09728901 -84.67184231 101.66351282 -84.71972656 94.22900391 C-84.7397109 91.70549739 -84.76690771 89.1820364 -84.80175781 86.65869141 C-85.16395107 59.73921046 -85.16395107 59.73921046 -80.5 48.53125 C-80.05358154 47.36650146 -80.05358154 47.36650146 -79.59814453 46.17822266 C-78.79215298 44.19903996 -77.90863536 42.30909156 -76.9375 40.40625 C-76.43367798 39.41141602 -76.43367798 39.41141602 -75.91967773 38.39648438 C-72.17833444 31.39084223 -67.17733551 26.0116837 -61.5 20.53125 C-60.79359375 19.79390625 -60.0871875 19.0565625 -59.359375 18.296875 C-55.01171139 14.01558794 -50.25659325 11.06445258 -44.875 8.28125 C-44.27276611 7.96381836 -43.67053223 7.64638672 -43.05004883 7.31933594 C-29.07264067 0.49303466 -15.23355677 -0.07159747 0 0 Z " fill="#77DFE9" transform="translate(230.5,-0.53125)"/>
<path d="M0 0 C10.71037447 -0.09315298 21.42065073 -0.16399308 32.13134956 -0.20724869 C37.10610507 -0.2280213 42.08058107 -0.2561476 47.05517578 -0.30175781 C51.86628802 -0.34558727 56.67713336 -0.36921451 61.48843002 -0.37950897 C63.31343658 -0.38683437 65.13843044 -0.40113679 66.96332169 -0.42292023 C81.1174643 -0.58497926 93.4101842 1.03844645 106.1875 7.6875 C106.85547607 8.03216309 107.52345215 8.37682617 108.21166992 8.73193359 C125.77386369 18.11166964 137.3528628 33.67723823 143.78138733 52.25856018 C146.80640748 62.51758872 146.45412734 72.83243374 146.43359375 83.42578125 C146.43816479 85.50262114 146.44347308 87.57945953 146.44947815 89.65629578 C146.45837445 93.99415254 146.45602666 98.33182487 146.44604492 102.66967773 C146.434571 108.1901568 146.45476088 113.70999466 146.48396206 119.2303896 C146.50243422 123.51590425 146.50200959 127.80126844 146.49632454 132.08681297 C146.49617261 134.12029099 146.50210907 136.15378006 146.51461601 138.18721962 C146.59373365 153.15871312 145.43951872 166.74453747 138.3125 180.25 C137.96783691 180.91346436 137.62317383 181.57692871 137.26806641 182.26049805 C128.03339836 199.4346522 113.02640235 210.96967971 94.69103813 217.1077261 C84.83991647 219.97312899 75.77686093 220.56474701 65.55908203 220.49829102 C63.8670555 220.50212474 62.17503225 220.50775269 60.48301697 220.51501465 C56.87199635 220.52686698 53.26126702 220.52655324 49.65024185 220.51642036 C43.93362404 220.50072644 38.21729965 220.51462702 32.5007019 220.53245544 C21.40506355 220.56312955 10.30951723 220.56478116 -0.7861557 220.56280518 C-14.93099679 220.56140767 -29.07576783 220.57182112 -43.22055733 220.6113829 C-48.89738855 220.62626851 -54.57395532 220.62608357 -60.25079036 220.61390507 C-63.78355983 220.60918175 -67.31622876 220.61673216 -70.84898186 220.62744904 C-72.48034808 220.62984673 -74.11173141 220.62714982 -75.74307823 220.61884117 C-83.9531068 220.5795405 -91.37034924 220.54827071 -99 224 C-102.48073203 227.48073203 -103.25262892 230.28429359 -103.4375 235.0625 C-103.25383296 239.13990836 -102.76982402 241.84813129 -100 245 C-94.08216532 249.47836138 -87.25162345 249.15489408 -80.14892578 249.20532227 C-79.27998184 249.21522186 -78.4110379 249.22512146 -77.51576233 249.23532104 C-74.65897293 249.26677289 -71.80216693 249.29162863 -68.9453125 249.31640625 C-66.95848166 249.33698988 -64.97165506 249.35798672 -62.98483276 249.37937927 C-57.76692143 249.43445442 -52.54897153 249.48392766 -47.33099365 249.53222656 C-42.00187771 249.58254814 -36.67281745 249.63817848 -31.34375 249.69335938 C-20.89588096 249.80076279 -10.44796347 249.90224703 0 250 C0.1024358 257.27323202 0.17189468 264.54627424 0.21972656 271.82006836 C0.23969219 274.28823803 0.26687437 276.75636133 0.30175781 279.22436523 C0.6681012 305.83274723 0.6681012 305.83274723 -4 318 C-4.30824707 318.80961182 -4.61649414 319.61922363 -4.93408203 320.45336914 C-5.76851497 322.4451601 -6.68000345 324.34082768 -7.6875 326.25 C-8.03216309 326.91346436 -8.37682617 327.57692871 -8.73193359 328.26049805 C-18.00329401 345.50289075 -32.89597197 356.72133495 -51.16625977 363.10656738 C-62.28999713 366.4448068 -72.95034657 366.58553318 -84.5 366.53125 C-86.55013207 366.53395263 -88.60026288 366.53784141 -90.65039062 366.54284668 C-94.92330263 366.5487055 -99.19587755 366.54029641 -103.46875 366.52148438 C-108.90509892 366.49869728 -114.34065751 366.51183993 -119.77697754 366.53577423 C-124.00331416 366.55033063 -128.22946797 366.54558144 -132.45581055 366.53526306 C-134.45857846 366.53262287 -136.46136379 366.53576839 -138.46411133 366.54518127 C-153.26510531 366.59950474 -166.79169478 365.3712185 -180.1875 358.4375 C-180.84621094 358.10161865 -181.50492188 357.7657373 -182.18359375 357.41967773 C-189.15602771 353.67081214 -194.53702502 348.65924953 -200 343 C-200.73734375 342.29359375 -201.4746875 341.5871875 -202.234375 340.859375 C-206.5348607 336.4922151 -209.46977243 331.72461588 -212.25 326.3125 C-212.56743164 325.70188721 -212.88486328 325.09127441 -213.21191406 324.4621582 C-219.02010062 312.50834839 -220.59622856 300.84334436 -220.53344727 287.72998047 C-220.54052464 286.15133872 -220.54927721 284.57270375 -220.55955505 282.99407959 C-220.58184926 278.75032311 -220.57915759 274.50694304 -220.57023358 270.26315069 C-220.56508616 266.70456408 -220.57244603 263.14604591 -220.57970566 259.58746636 C-220.59663948 251.1879688 -220.59320292 242.78865323 -220.57641602 234.38916016 C-220.55947959 225.75361813 -220.57536484 217.11858107 -220.6076389 208.4830941 C-220.63440499 201.03636363 -220.64159255 193.58978968 -220.63312382 186.14301598 C-220.62821767 181.70942529 -220.63028471 177.27613851 -220.65091133 172.84258652 C-220.66938099 168.67421037 -220.66317373 164.50655693 -220.63871193 160.33821869 C-220.63374062 158.81777168 -220.63709703 157.29726847 -220.64986038 155.77686691 C-220.7504046 142.76047364 -217.96251568 131.79725979 -209 122 C-202.58718422 115.49643683 -194.10569926 110.4865724 -184.85612965 109.74946022 C-183.16025982 109.748957 -183.16025982 109.748957 -181.43013 109.7484436 C-180.12517075 109.74306076 -178.82021149 109.73767792 -177.47570801 109.73213196 C-176.04150347 109.73614569 -174.60729937 109.74031659 -173.1730957 109.74462891 C-171.65313021 109.74187693 -170.13316616 109.73819577 -168.61320496 109.73365784 C-165.34587472 109.72556071 -162.07861286 109.72337368 -158.81127357 109.72560501 C-153.63675507 109.72844534 -148.46237232 109.71405813 -143.28788757 109.69662476 C-128.57549075 109.64967012 -113.86310322 109.62566873 -99.15063477 109.61914062 C-91.02038075 109.61538092 -82.89028054 109.59727789 -74.76009244 109.56404626 C-69.62486331 109.54391148 -64.49003305 109.54142313 -59.35478079 109.55232644 C-56.147441 109.55494819 -52.9403296 109.54085835 -49.73304939 109.52224541 C-48.2557331 109.51695831 -46.7783738 109.51836001 -45.30107498 109.52728081 C-31.67233739 109.60288223 -21.16667151 107.05298235 -11.31640625 97.33984375 C-4.29007944 89.64768049 -0.71290744 80.56325967 -0.68115234 70.15869141 C-0.67110672 69.39703674 -0.6610611 68.63538208 -0.65071106 67.85064697 C-0.61999591 65.35095932 -0.60287668 62.85137821 -0.5859375 60.3515625 C-0.56721644 58.6113494 -0.54764233 56.87114528 -0.5272522 55.13095093 C-0.47602404 50.56407989 -0.43634858 45.99717945 -0.39910889 41.43017578 C-0.35901071 36.76457502 -0.30794493 32.09909557 -0.2578125 27.43359375 C-0.16116359 18.28914784 -0.07672362 9.14463328 0 0 Z " fill="#FDDC00" transform="translate(366,146)"/>
<path d="M0 0 C55.57690153 0 55.57690153 0 70.1875 7.5625 C70.84621094 7.89838135 71.50492187 8.2342627 72.18359375 8.58032227 C79.15602771 12.32918786 84.53702502 17.34075047 90 23 C90.73734375 23.70640625 91.4746875 24.4128125 92.234375 25.140625 C96.5348607 29.5077849 99.46977243 34.27538412 102.25 39.6875 C102.56743164 40.29811279 102.88486328 40.90872559 103.21191406 41.5378418 C109.0249397 53.5016109 110.59452835 65.16208114 110.51757812 78.28588867 C110.52301365 79.86615133 110.53014424 81.44640891 110.53881836 83.0266571 C110.55688053 87.2744942 110.55005711 91.52193788 110.53730202 95.76978087 C110.52709006 100.23823879 110.53658974 104.70666571 110.54284668 109.17512512 C110.55009717 116.67206805 110.54060163 124.16885266 110.52148438 131.66577148 C110.49969674 140.30922801 110.50679116 148.95230732 110.52879 157.5957548 C110.5469899 165.04756001 110.54948067 172.49925224 110.53903532 179.95107251 C110.5328286 184.38849237 110.53188691 188.82573534 110.54518127 193.26314354 C110.55680723 197.43390358 110.54859226 201.60418067 110.52560425 205.77488899 C110.52035395 207.29736406 110.5217672 208.81988038 110.53065491 210.34233856 C110.60769216 224.88899316 107.62420522 235.25872412 97.2734375 245.75 C72.48449776 268.38830114 24.48416375 256 0 256 C0 171.52 0 87.04 0 0 Z " fill="#3CCCDC" transform="translate(256,0)"/>
<path d="M0 0 C0 84.48 0 168.96 0 256 C-55.57690153 256 -55.57690153 256 -70.1875 248.4375 C-70.84621094 248.10161865 -71.50492188 247.7657373 -72.18359375 247.41967773 C-79.15602771 243.67081214 -84.53702502 238.65924953 -90 233 C-90.73734375 232.29359375 -91.4746875 231.5871875 -92.234375 230.859375 C-96.5348607 226.4922151 -99.46977243 221.72461588 -102.25 216.3125 C-102.56743164 215.70188721 -102.88486328 215.09127441 -103.21191406 214.4621582 C-109.02010062 202.50834839 -110.59622856 190.84334436 -110.53344727 177.72998047 C-110.54052464 176.15133872 -110.54927721 174.57270375 -110.55955505 172.99407959 C-110.58184926 168.75032311 -110.57915759 164.50694304 -110.57023358 160.26315069 C-110.56508616 156.70456408 -110.57244603 153.14604591 -110.57970566 149.58746636 C-110.59663948 141.1879688 -110.59320292 132.78865323 -110.57641602 124.38916016 C-110.55947959 115.75361813 -110.57536484 107.11858107 -110.6076389 98.4830941 C-110.63440499 91.03636363 -110.64159255 83.58978968 -110.63312382 76.14301598 C-110.62821767 71.70942529 -110.63028471 67.27613851 -110.65091133 62.84258652 C-110.66938099 58.67421037 -110.66317373 54.50655693 -110.63871193 50.33821869 C-110.63374062 48.81777168 -110.63709703 47.29726847 -110.64986038 45.77686691 C-110.7504046 32.76047364 -107.96251568 21.79725979 -99 12 C-74.39068938 -12.95755558 -27.55487904 0 0 0 Z " fill="#FDEE55" transform="translate(256,256)"/>
<path d="M0 0 C4.36492736 2.40706674 5.93942071 4.83284673 7.8125 9.4375 C8.54520346 14.47483626 7.62027557 18.24512573 5.20703125 22.63671875 C1.89427009 26.91454198 -2.56531496 28.20982491 -7.75 28.9375 C-11.90567414 28.33303831 -15.0494453 27.21048398 -18.1875 24.4375 C-21.62339266 19.77883377 -23.03044428 15.23274192 -22.1875 9.4375 C-20.42898855 4.50534364 -17.74068059 1.40845153 -13.0390625 -0.90234375 C-8.34602817 -2.57559861 -4.45447532 -1.90552555 0 0 Z " fill="#494858" transform="translate(298.1875,437.5625)"/>
<path d="M0 0 C4.14374812 2.29314216 6.33723536 4.938401 7.8125 9.4375 C8.65187362 15.31311535 7.76319986 18.86346837 4.36328125 23.73828125 C0.98046988 27.44488817 -2.87326887 28.27322111 -7.6875 28.875 C-11.89682607 28.34883424 -15.0207356 27.23585369 -18.1875 24.4375 C-21.62339266 19.77883377 -23.03044428 15.23274192 -22.1875 9.4375 C-20.42898855 4.50534364 -17.74068059 1.40845153 -13.0390625 -0.90234375 C-8.34602817 -2.57559861 -4.45447532 -1.90552555 0 0 Z " fill="#5A5C70" transform="translate(228.1875,47.5625)"/>
</svg>
