<?xml version="1.0" encoding="UTF-8"?>
<svg version="1.1" xmlns="http://www.w3.org/2000/svg" width="512" height="512">
<path d="M0 0 C1.29993393 0.00090637 1.29993393 0.00090637 2.62612915 0.00183105 C46.07556514 0.08339542 106.26054307 0.63062624 140.75 31.0625 C144.79135316 35.64270024 146.00023651 39.83895375 145.98576355 45.86935425 C145.98832682 46.51559852 145.9908901 47.16184279 145.99353105 47.82767022 C145.99844676 49.97895988 145.98201381 52.12953743 145.96557617 54.28076172 C145.96472942 55.82842492 145.96520599 57.37608933 145.96690369 58.92375183 C145.96776317 63.11551772 145.95014502 67.30702521 145.92918181 71.49873114 C145.91040724 75.88293994 145.90866396 80.2671549 145.90510559 84.65139771 C145.89578742 92.94921605 145.87117672 101.2469156 145.84105712 109.54468167 C145.80750602 118.9932337 145.79102532 128.44179146 145.77597082 137.89038825 C145.74462697 157.32282615 145.6918709 176.75515352 145.625 196.1875 C146.51684998 195.91048752 147.40869995 195.63347504 148.32757568 195.34806824 C149.49790344 194.98594742 150.6682312 194.6238266 151.87402344 194.25073242 C153.03399841 193.89121994 154.19397339 193.53170746 155.38909912 193.16130066 C158.87578828 192.11202866 162.31226513 191.24438784 165.875 190.5 C166.95265625 190.26925781 168.0303125 190.03851563 169.140625 189.80078125 C207.98953022 182.96302551 249.94693259 191.18283411 282.59472656 213.53613281 C295.90335137 222.9420847 307.66360543 233.2086027 317.625 246.1875 C318.35203125 247.08726562 319.0790625 247.98703125 319.828125 248.9140625 C344.87160062 280.70001233 354.37853819 321.88868093 349.80249023 361.72558594 C347.5925303 378.52423792 343.05009268 393.97145166 335.625 409.1875 C335.31691406 409.82284668 335.00882812 410.45819336 334.69140625 411.11279297 C327.42402883 425.89255794 318.03142753 438.36899055 306.625 450.1875 C305.83609375 451.03957031 305.0471875 451.89164062 304.234375 452.76953125 C278.44735989 479.88005211 239.39665582 495.29089581 202.35546875 496.390625 C161.59819218 496.9687943 124.1278161 484.5112627 93.625 457.1875 C92.73039063 456.42566406 91.83578125 455.66382813 90.9140625 454.87890625 C84.71471799 449.52839507 79.58099566 443.69648745 74.625 437.1875 C74.02171875 436.40463623 74.02171875 436.40463623 73.40625 435.60595703 C56.44118416 413.4387128 44.81462484 386.26590549 43.625 358.1875 C42.84091766 358.25733093 42.05683533 358.32716187 41.24899292 358.39910889 C33.26004924 359.06806916 25.33528322 359.35994299 17.3203125 359.390625 C16.09007355 359.39759399 14.85983459 359.40456299 13.59231567 359.41174316 C9.64486124 359.42903896 5.69748403 359.43591839 1.75 359.4375 C1.07843369 359.43808914 0.40686737 359.43867828 -0.28504944 359.43928528 C-20.4759577 359.45179467 -40.36394868 359.13011693 -60.375 356.1875 C-61.9537793 355.9706958 -61.9537793 355.9706958 -63.56445312 355.74951172 C-90.47116212 352.00694268 -124.58111089 346.76854601 -143.09765625 324.984375 C-145.31179718 321.86968134 -145.50139374 319.16624647 -145.50922108 315.46783924 C-145.51367892 314.49144893 -145.51813676 313.51505861 -145.52272969 312.50908071 C-145.52254533 311.43381067 -145.52236097 310.35854063 -145.52217102 309.25068665 C-145.52584771 308.11037324 -145.5295244 306.97005983 -145.5333125 305.79519147 C-145.54244003 302.62496726 -145.54704919 299.45477348 -145.54970181 296.28453839 C-145.55360506 292.86722008 -145.5631834 289.44991677 -145.57191467 286.03260803 C-145.59167872 277.77717111 -145.60174532 269.52173296 -145.61064246 261.2662783 C-145.61502555 257.37865623 -145.62039232 253.49103553 -145.62563133 249.60341454 C-145.64264372 236.68001367 -145.65713783 223.75661366 -145.66438007 210.83320332 C-145.66628997 207.47937837 -145.6682103 204.12555343 -145.67016602 200.77172852 C-145.67064976 199.93815137 -145.6711335 199.10457422 -145.6716319 198.24573716 C-145.67993197 184.74271621 -145.70526844 171.23978386 -145.73774669 157.7368016 C-145.77081934 143.87367408 -145.78882903 130.01059158 -145.79202431 116.1474244 C-145.79418925 108.36372808 -145.80293538 100.58016094 -145.82848549 92.79650307 C-145.85019534 86.16743566 -145.85824157 79.53852881 -145.84851871 72.90942989 C-145.84397463 69.52804793 -145.84804848 66.14726577 -145.86528015 62.7658844 C-145.88293261 59.09671988 -145.87592441 55.42839623 -145.86274719 51.75923157 C-145.87371644 50.69511514 -145.88468568 49.6309987 -145.89598733 48.53463632 C-145.83163874 41.11485307 -144.43253631 36.12294277 -139.796875 30.15625 C-105.44360124 -0.02326152 -43.34111304 -0.05659956 0 0 Z " fill="#35718A" transform="translate(153.375,7.8125)"/>
<path d="M0 0 C1.29993393 0.00090637 1.29993393 0.00090637 2.62612915 0.00183105 C46.07556514 0.08339542 106.26054307 0.63062624 140.75 31.0625 C145.89914153 36.89819373 146.06295311 42.32917792 146.02905273 49.74755859 C146.03934761 51.32430611 146.03934761 51.32430611 146.04985046 52.9329071 C146.06812117 56.40072211 146.06428008 59.86808478 146.05859375 63.3359375 C146.06315571 65.75200548 146.06846133 68.16807217 146.07447815 70.58413696 C146.08341005 75.64631422 146.08098545 80.70833373 146.07104492 85.77050781 C146.05956103 92.24914969 146.07975812 98.72724605 146.10896206 105.20581627 C146.12733291 110.19533737 146.12702967 115.184728 146.12132454 120.17427444 C146.1211714 122.56242258 146.12720925 124.95057961 146.13961601 127.33869553 C146.15453855 130.68235957 146.14383814 134.02501914 146.12670898 137.36865234 C146.13637695 138.34969437 146.14604492 139.33073639 146.15600586 140.34150696 C146.07977192 147.46920438 144.43057902 152.57635869 140.046875 158.21875 C116.66701943 178.75806237 79.05085558 182.70175801 49.625 186.1875 C48.68011719 186.30754395 47.73523438 186.42758789 46.76171875 186.55126953 C31.69484554 188.42346804 16.59648482 188.36631763 1.4375 188.375 C0.4190097 188.37608765 -0.59948059 188.37717529 -1.64883423 188.3782959 C-21.62463963 188.37588324 -41.39682045 187.85307923 -61.1875 185 C-62.33881912 184.83718536 -62.33881912 184.83718536 -63.51339722 184.67108154 C-88.71664526 181.07391581 -123.18276175 176.08835404 -141.375 156.1875 C-145.5006946 150.18409051 -145.9521259 144.6152566 -145.89257812 137.4921875 C-145.8995874 136.45048401 -145.90659668 135.40878052 -145.91381836 134.33551025 C-145.93134459 130.91089794 -145.91979408 127.48711993 -145.90625 124.0625 C-145.90894644 121.67171064 -145.91283013 119.28092234 -145.91784668 116.89013672 C-145.92373448 111.88693774 -145.91520153 106.884025 -145.89648438 101.88085938 C-145.87369575 95.4784771 -145.88682262 89.07676564 -145.91077423 82.67440796 C-145.92525133 77.73977637 -145.92061734 72.80530294 -145.91026306 67.8706665 C-145.90760109 65.5104362 -145.91084683 63.15019138 -145.92018127 60.78997803 C-145.93037792 57.48720443 -145.91480086 54.18550632 -145.89257812 50.8828125 C-145.90067505 49.91426331 -145.90877197 48.94571411 -145.91711426 47.94781494 C-145.82914452 40.86483696 -144.15290139 35.76301664 -139.796875 30.15625 C-105.44360124 -0.02326152 -43.34111304 -0.05659956 0 0 Z " fill="#4184A8" transform="translate(153.375,7.8125)"/>
<path d="M0 0 C1.29993393 0.00090637 1.29993393 0.00090637 2.62612915 0.00183105 C107.87672247 0.19941009 107.87672247 0.19941009 140.80859375 31.24609375 C144.15542265 34.82324206 145.41345706 37.75958516 146.125 42.5625 C145.07374114 50.18412671 140.11629161 55.42452246 134.3671875 60.25 C118.20052439 71.67259957 96.7045635 76.51674236 77.50512695 79.68432617 C74.70236705 80.17398356 71.91724801 80.73154508 69.12823486 81.2933197 C59.64660653 83.17020672 50.19596597 84.16749984 40.5625 84.875 C39.72895996 84.93753967 38.89541992 85.00007935 38.03662109 85.06451416 C-14.19546251 88.89764334 -91.57091516 92.43663029 -135.42578125 58.9140625 C-139.80461239 55.03541848 -145.00842394 50.25038471 -145.5625 44.109375 C-144.91640439 36.62543414 -141.86349572 32.20872932 -136.24609375 27.34375 C-100.51054977 0.49793772 -42.9005696 -0.05602425 0 0 Z " fill="#35718A" transform="translate(153.375,7.8125)"/>
<path d="M0 0 C2 2 2 2 3.625 5.25 C11.26871092 18.58525107 32.21083649 24.36004905 46.14306641 28.24682617 C57.8551199 31.33447657 69.50625378 33.76247807 81.50976562 35.38305664 C83.73769875 35.68582828 85.96241179 36.00713674 88.1875 36.33007812 C107.46177676 39.04408975 126.87668083 39.23674481 146.3125 39.25 C147.35393158 39.25100708 148.39536316 39.25201416 149.46835327 39.25305176 C167.50305214 39.24135041 185.10299712 38.29334696 203 36 C204.17208008 35.86078125 205.34416016 35.7215625 206.55175781 35.578125 C230.88176256 32.6609554 268.141602 27.79631681 285.625 8.375 C287.63488442 5.75623883 289.03541328 3.18313617 290 0 C290.33 0 290.66 0 291 0 C291 16.17 291 32.34 291 49 C283.74 52.3 276.48 55.6 269 59 C259.22088638 64.69862017 250.48707076 70.54246504 242 78 C240.74123047 79.07701172 240.74123047 79.07701172 239.45703125 80.17578125 C232.46159778 86.28187279 225.51654461 92.91514294 220.21704102 100.578125 C217.54061481 103.50182812 216.17708872 103.80575696 212.30078125 104.328125 C211.17220703 104.48796875 210.04363281 104.6478125 208.88085938 104.8125 C207.11452148 105.0290625 207.11452148 105.0290625 205.3125 105.25 C204.18521484 105.40984375 203.05792969 105.5696875 201.89648438 105.734375 C182.90837303 108.29889201 163.81332972 108.28022238 144.6875 108.3125 C144.01448475 108.31394516 143.3414695 108.31539032 142.64805984 108.31687927 C120.55072786 108.35514995 98.83881172 107.58253962 77 104 C75.46859375 103.7517749 75.46859375 103.7517749 73.90625 103.49853516 C68.21530602 102.53994724 62.60571157 101.36760668 57 100 C56.19336914 99.80792969 55.38673828 99.61585938 54.55566406 99.41796875 C12.32192036 89.2569594 12.32192036 89.2569594 2.97431946 74.36607361 C-0.85680082 66.99387216 -0.51061963 59.54787689 -0.390625 51.46484375 C-0.38315076 49.97555812 -0.37746343 48.48626255 -0.37347412 46.9969635 C-0.35831052 43.10548025 -0.31911126 39.21460842 -0.2746582 35.32336426 C-0.23350319 31.34131131 -0.21542024 27.35915813 -0.1953125 23.37695312 C-0.15260585 15.58435878 -0.08447004 7.79226554 0 0 Z " fill="#4184A8" transform="translate(8,156)"/>
<path d="M0 0 C1.27276283 1.90914424 2.5069865 3.84497749 3.6875 5.8125 C13.11437289 18.80629776 30.12457172 23.90925722 45 28 C46.52086394 28.4360912 48.04169635 28.87229236 49.5625 29.30859375 C60.61825722 32.41451684 71.62560059 34.49203821 83 36 C83.95667572 36.12795959 84.91335144 36.25591919 85.89901733 36.38775635 C104.78421401 38.84082348 123.29088457 39.41518822 142.29364014 39.26428223 C145.16644752 39.24514381 148.03919165 39.24115953 150.91205406 39.23744965 C166.62881837 39.21495784 182.30849538 38.95524131 198 38 C197.83395264 38.60247559 197.66790527 39.20495117 197.49682617 39.82568359 C191.10531909 63.18804976 188.54155283 83.79123151 189 108 C180.21906697 108.78203616 171.50950314 109.16938351 162.6953125 109.203125 C161.46507355 109.21009399 160.23483459 109.21706299 158.96731567 109.22424316 C155.01986124 109.24153896 151.07248403 109.24841839 147.125 109.25 C146.45343369 109.25058914 145.78186737 109.25117828 145.08995056 109.25178528 C124.8990423 109.26429467 105.01105132 108.94261693 85 106 C83.94748047 105.85546387 82.89496094 105.71092773 81.81054688 105.56201172 C54.90383788 101.81944268 20.79388911 96.58104601 2.27734375 74.796875 C-0.36098698 71.08546175 -0.12143503 67.63931337 -0.11352539 63.23364258 C-0.11367142 62.55045456 -0.11381744 61.86726654 -0.1139679 61.16337585 C-0.11327169 58.90706193 -0.10549296 56.65083074 -0.09765625 54.39453125 C-0.09579103 52.82940211 -0.09436762 51.26427239 -0.09336853 49.69914246 C-0.08955152 45.58096707 -0.07972818 41.46282698 -0.06866455 37.34466553 C-0.05843291 33.14189125 -0.05386715 28.93911127 -0.04882812 24.73632812 C-0.03810519 16.49086922 -0.02103854 8.245439 0 0 Z " fill="#4184A8" transform="translate(8,258)"/>
<path d="M0 0 C1.72058691 2.23198358 3.16851119 4.31595848 4.5 6.8125 C12.57854618 18.96091982 32.58779451 24.37358624 46 28 C46.74314453 28.2047998 47.48628906 28.40959961 48.25195312 28.62060547 C67.10842719 33.6909546 86.63809434 35.78640686 106 38 C106.77695221 38.09219315 107.55390442 38.18438629 108.35440063 38.27937317 C114.7037383 38.98344593 120.98206031 39.16016427 127.3671875 39.16796875 C128.43153519 39.17224884 129.49588287 39.17652893 130.59248352 39.18093872 C134.02003231 39.19088861 137.44743956 39.19099846 140.875 39.1875 C142.04704987 39.18656342 143.21909973 39.18562683 144.42666626 39.18466187 C182.75547853 39.11808861 222.1337282 36.9184858 258.4375 23.625 C259.43338135 23.26180664 260.4292627 22.89861328 261.45532227 22.52441406 C272.66056419 18.25735886 284.18054271 12.91189591 289.3359375 1.57421875 C289.55507813 1.05472656 289.77421875 0.53523438 290 0 C290.33 0 290.66 0 291 0 C291.09954745 4.69557647 291.17178467 9.39052663 291.21972656 14.08691406 C291.23973053 15.68142408 291.26694301 17.27586178 291.30175781 18.87011719 C291.50919077 28.61946611 291.65944855 36.00268998 285.421875 44.03125 C262.04201943 64.57056237 224.42585558 68.51425801 195 72 C194.05511719 72.12004395 193.11023438 72.24008789 192.13671875 72.36376953 C177.06984554 74.23596804 161.97148482 74.17881763 146.8125 74.1875 C145.7940097 74.18858765 144.77551941 74.18967529 143.72616577 74.1907959 C123.75036037 74.18838324 103.97817955 73.66557923 84.1875 70.8125 C83.41995392 70.70395691 82.65240784 70.59541382 81.86160278 70.48358154 C56.48025948 66.86099694 22.43830395 61.83361904 4 42 C-1.45591163 34.21845698 -0.4485957 25.59418439 -0.25 16.5 C-0.22990783 14.89845979 -0.21166185 13.29689529 -0.1953125 11.6953125 C-0.15152271 7.79626919 -0.08264721 3.89840534 0 0 Z " fill="#6CDF8E" transform="translate(8,122)"/>
<path d="M0 0 C7.01374277 5.61631774 12.05115947 13.58509704 13.68359375 22.4609375 C13.99854703 27.00721963 14.01150699 31.54559873 14.01953125 36.1015625 C14.02951645 38.07851105 14.02951645 38.07851105 14.03970337 40.09539795 C14.05163528 42.8792244 14.05538856 45.66292716 14.05419922 48.44677734 C14.05399654 51.98483123 14.08126273 55.52207728 14.11574364 59.05994034 C14.1381685 61.80891438 14.14203201 64.557699 14.14097977 67.30675507 C14.14443589 69.23583452 14.16600129 71.16485484 14.18807983 73.09381104 C14.151604 80.19447995 13.33399038 85.68287416 10.34707642 92.16229248 C9.43519304 94.46079292 9.43519304 94.46079292 10.50570679 96.63995361 C10.89440948 97.2408783 11.28311218 97.84180298 11.68359375 98.4609375 C13.28779893 101.66934785 13.1582212 104.9803362 12.68359375 108.4609375 C11.18359375 110.9609375 11.18359375 110.9609375 8.68359375 112.4609375 C4.39724255 113.13364453 1.37690107 112.92314238 -2.31640625 110.4609375 C-2.31640625 109.8009375 -2.31640625 109.1409375 -2.31640625 108.4609375 C-2.91324219 108.7496875 -3.51007813 109.0384375 -4.125 109.3359375 C-13.28930958 113.25766285 -23.7240632 114.43444147 -33.3828125 111.54296875 C-35.88908744 110.3606192 -38.06278474 109.06945455 -40.31640625 107.4609375 C-40.96996094 107.00332031 -41.62351562 106.54570312 -42.296875 106.07421875 C-49.72613585 100.29238461 -53.40888396 92.53631852 -55.31640625 83.4609375 C-55.74833744 78.75251054 -55.78440488 74.06989332 -55.78515625 69.34375 C-55.79227957 67.9967315 -55.79998162 66.64971595 -55.80822754 65.30270386 C-55.82158953 62.4938715 -55.82327887 59.68531984 -55.81738281 56.87646484 C-55.81149346 53.31036088 -55.84208284 49.74562154 -55.88249969 46.17978096 C-55.90858639 43.40157049 -55.91123545 40.62367963 -55.90760803 37.84536362 C-55.91008151 35.90245805 -55.93461708 33.95961965 -55.95983887 32.01687622 C-55.87079736 20.4568025 -52.72257008 10.89228752 -44.63671875 2.4375 C-31.22301253 -8.98899048 -14.65866259 -9.73948239 0 0 Z " fill="#FAFBFC" transform="translate(379.31640625,296.5390625)"/>
<path d="M0 0 C2 3 2 3 3.5625 6.25 C11.74540847 20.29045807 33.19678056 26.08624058 48 30 C48.76779785 30.2072168 49.5355957 30.41443359 50.32666016 30.62792969 C67.28000275 35.1077056 84.59311905 37.17923826 102 39 C102.80123795 39.08776199 103.60247589 39.17552399 104.42799377 39.26594543 C111.79557527 40.01623518 119.10177787 40.16108119 126.50390625 40.16796875 C127.78063705 40.17129715 129.05736786 40.17462555 130.37278748 40.17805481 C133.06974124 40.18400464 135.7666632 40.18589955 138.46362305 40.18530273 C141.16942146 40.18522231 143.87504754 40.19203593 146.58081055 40.20581055 C167.92345936 40.30642794 189.51559069 40.22986348 210.58203125 36.3671875 C213.09052913 35.98625244 215.46672542 35.93632703 218 36 C217.59910156 36.59683594 217.19820312 37.19367188 216.78515625 37.80859375 C212.98791576 43.6034755 209.55477953 49.50517221 206.3125 55.625 C205.92425049 56.35710693 205.53600098 57.08921387 205.13598633 57.84350586 C203.13565272 61.66773648 201.33569763 65.48118739 199.75 69.5 C199.1725 70.655 198.595 71.81 198 73 C182.01493031 77.94465378 161.91119708 75.28830988 145.25 75.3125 C144.51561958 75.31379787 143.78123917 75.31509575 143.0246048 75.31643295 C120.144774 75.3470582 97.60756872 74.86976402 75 71 C73.28514404 70.71116943 73.28514404 70.71116943 71.53564453 70.41650391 C48.53057768 66.39590747 18.86266075 60.49328753 3.15625 41.7734375 C0.01352419 36.95317562 -0.27383298 32.48270621 -0.1953125 26.85546875 C-0.1924826 26.08568192 -0.18965271 25.31589508 -0.18673706 24.52278137 C-0.17559157 22.07752575 -0.15049781 19.63264388 -0.125 17.1875 C-0.1149629 15.52409385 -0.10583833 13.86068193 -0.09765625 12.19726562 C-0.07567073 8.13136763 -0.04118014 4.06574706 0 0 Z " fill="#6CDE8E" transform="translate(8,223)"/>
<path d="M0 0 C8.3940312 4.7945074 14.14508028 12.80081424 17 22 C17.60339163 27.15490137 17.78711856 31.42576289 15.4375 36.125 C12.18171189 38.62945239 10.09735503 39.07188342 6 39 C3.25 37.8125 3.25 37.8125 1 35 C0.4572085 33.07935315 -0.01463385 31.13806176 -0.4375 29.1875 C-1.68116827 23.46522859 -3.36139219 19.67694521 -8 16 C-12.33797334 13.87716198 -16.20834698 13.57217384 -21 14 C-26.67549553 16.04317839 -30.29873721 19.59747441 -33 25 C-33.8315115 31.39075982 -33.12447192 35.92183477 -29.58203125 41.30859375 C-26.85954535 44.2193009 -24.28986473 45.83900092 -20.30859375 46.3359375 C-19.36113281 46.34882813 -18.41367187 46.36171875 -17.4375 46.375 C-7.00822622 47.04206302 2.00651187 51.19476771 9 59 C16.22109617 68.09084429 17.88045603 76.49816969 17 88 C15.38384036 96.8956686 9.9529319 104.1281968 2.9453125 109.6796875 C-5.76174412 115.58929621 -15.74322334 116.59435568 -26 115 C-35.22995205 112.09769285 -42.75194678 106.59042388 -47.3125 98 C-50.16142666 91.62965327 -52.27177247 85.01441519 -51 78 C-48.875 74.9375 -48.875 74.9375 -46 73 C-42.08852059 72.44121723 -39.28900312 72.76817646 -36 75 C-34.0006389 77.99904165 -33.64411202 79.36411301 -33.125 82.8125 C-32.08960173 88.31857141 -30.40878155 92.26401605 -25.734375 95.6328125 C-20.98307017 98.00846491 -16.18416596 97.61197074 -11 97 C-6.02333229 94.86714241 -3.8239034 91.8963194 -1.69140625 87.078125 C-0.13896984 82.41204494 -0.7060956 78.91265051 -2.1875 74.3125 C-5.02589198 69.12509397 -8.51501846 66.88521997 -14 65 C-16.26397864 64.65918601 -18.5362608 64.37094426 -20.8125 64.125 C-26.63702492 63.32936625 -31.14904357 62.34294171 -36 59 C-36.67546875 58.53980469 -37.3509375 58.07960938 -38.046875 57.60546875 C-44.75559155 52.4226069 -49.50507036 44.40085459 -51 36 C-51.81240078 26.17128231 -50.99493307 18.3527394 -45.01171875 10.3359375 C-33.0217696 -3.70410658 -17.1535817 -8.60359332 0 0 Z " fill="#FBFCFD" transform="translate(290,294)"/>
<path d="M0 0 C3.65907504 0.68607657 5.35167676 1.98984314 8 4.5625 C9.7026057 7.96771141 9.12864821 11.85642119 9.11352539 15.60205078 C9.11367142 16.53868561 9.11381744 17.47532043 9.1139679 18.44033813 C9.11326944 21.54618622 9.10548015 24.65197485 9.09765625 27.7578125 C9.09579183 29.90729744 9.09436804 32.0567828 9.09336853 34.20626831 C9.08954522 39.87145149 9.07971651 45.53660915 9.06866455 51.20178223 C9.05844644 56.97957006 9.05387005 62.757362 9.04882812 68.53515625 C9.03809409 79.8776154 9.02101989 91.22005558 9 102.5625 C9.79172607 102.54678955 10.58345215 102.5310791 11.39916992 102.51489258 C14.99520695 102.45243301 18.5911297 102.41347365 22.1875 102.375 C23.43337891 102.34986328 24.67925781 102.32472656 25.96289062 102.29882812 C27.16494141 102.28916016 28.36699219 102.27949219 29.60546875 102.26953125 C30.71043701 102.2538208 31.81540527 102.23811035 32.95385742 102.22192383 C36.41581935 102.60899098 38.22877938 103.48385651 41 105.5625 C43.24004999 108.92257498 43.11758489 110.59292011 42.875 114.52734375 C41.44094001 117.86281364 39.13649568 118.84673501 36 120.5625 C33.09661923 121.12925121 30.2645019 121.1476435 27.3125 121.12890625 C26.49177002 121.13510483 25.67104004 121.14130341 24.82543945 121.14768982 C23.0975055 121.15476495 21.36950305 121.15165437 19.64160156 121.13891602 C17.0071814 121.12503783 14.37630883 121.15916477 11.7421875 121.19726562 C10.0572908 121.19821685 8.37238969 121.19635779 6.6875 121.19140625 C5.90608643 121.20466446 5.12467285 121.21792267 4.31958008 121.23158264 C3.20812622 121.21278297 3.20812622 121.21278297 2.07421875 121.19360352 C1.10875122 121.19216087 1.10875122 121.19216087 0.1237793 121.19068909 C-3.3903825 120.15124111 -5.89123781 118.51429633 -8 115.5625 C-8.88354768 112.0369842 -8.81000703 108.59595261 -8.76049805 104.9765625 C-8.76940567 103.91097107 -8.77831329 102.84537964 -8.78749084 101.74749756 C-8.80879246 98.22687465 -8.78645454 94.70807825 -8.76171875 91.1875 C-8.76322091 88.74039523 -8.7666503 86.29329095 -8.77192688 83.84619141 C-8.77626029 78.71818099 -8.75940421 73.59079898 -8.72729492 68.46289062 C-8.68751466 61.88846441 -8.69681241 55.31521675 -8.72152996 48.74075317 C-8.73570952 43.68780857 -8.72562886 38.63513945 -8.70801735 33.58221436 C-8.70216538 31.15810809 -8.70347303 28.73397367 -8.71204185 26.30987549 C-8.72002877 22.92209174 -8.69580214 19.53603739 -8.6628418 16.1484375 C-8.67139191 15.14568787 -8.67994202 14.14293823 -8.68875122 13.10980225 C-8.6102988 8.44026918 -8.52413148 6.25864658 -5.64607239 2.43603516 C-3 0.5625 -3 0.5625 0 0 Z " fill="#F9FBFB" transform="translate(418,289.4375)"/>
<path d="M0 0 C5.49902993 2.63186535 9.19572899 5.53651544 12 11 C12.36076355 13.61335754 12.36076355 13.61335754 12.34057617 16.43286133 C12.34023628 18.02394463 12.34023628 18.02394463 12.33988953 19.64717102 C12.32440567 20.7806749 12.30892181 21.91417877 12.29296875 23.08203125 C12.28872391 24.25134689 12.28447906 25.42066254 12.28010559 26.62541199 C12.26333285 30.354677 12.22568192 34.08339872 12.1875 37.8125 C12.17245141 40.34309115 12.15876331 42.87369077 12.14648438 45.40429688 C12.11343383 51.60304949 12.0632477 57.80148592 12 64 C11.23816406 63.51273437 10.47632813 63.02546875 9.69140625 62.5234375 C6.45801323 60.69321504 4.66381719 60.53227866 1 61 C-1.51869332 61.76391002 -1.51869332 61.76391002 -3 64 C-4.01784889 68.23811221 -3.71435523 71.66832624 -1.6484375 75.51953125 C-0.57650691 77.09186546 0.53422188 78.63866622 1.6875 80.15234375 C3 82 3 82 3 84 C-1.22169451 86.11084725 -6.41479615 85.49902987 -11 85 C-15.53325052 83.35519229 -18.06886634 80.41375335 -20.15209961 76.13891602 C-22.70619525 70.10423684 -22.59320642 64.18342502 -22.56640625 57.71484375 C-22.57260483 56.45918106 -22.57880341 55.20351837 -22.58518982 53.9098053 C-22.59226699 51.26603698 -22.59111985 48.62380534 -22.57641602 45.98022461 C-22.55920379 42.61202724 -22.58278084 39.24553215 -22.61790562 35.87752438 C-22.64527919 32.63577874 -22.63513811 29.39417222 -22.62890625 26.15234375 C-22.64216446 24.95318832 -22.65542267 23.7540329 -22.66908264 22.51853943 C-22.58987438 15.36723328 -21.72205079 10.51471405 -17 5 C-12.25563792 0.37135407 -6.49791062 -1.56125771 0 0 Z " fill="#38738B" transform="translate(363,307)"/>
</svg>
